<svg id="Layer_1" data-name="Layer 1" xmlns="http://www.w3.org/2000/svg" viewBox="0 0 169.59 187.27">
  <defs>
    <style>
      .cls-1 {
        fill: #f7e016;
      }

      .cls-2 {
        fill: #fff;
      }

      .cls-3 {
        fill: #3e4b9c;
      }

      .cls-4 {
        fill: #d78340;
      }

      .cls-5 {
        fill: #8cc679;
      }

      .cls-6 {
        fill: #fff000;
      }

      .cls-7 {
        fill: #c64a95;
      }

      .cls-8 {
        fill: #ebc19f;
      }
    </style>
  </defs>
  <title>baloon</title>
  <g id="baloon.svg">
    <path class="cls-1" d="M88.39,193.78c-0.35-.9-12.31-17.4-12.85-18.8a84.43,84.43,0,0,1-49.94-28.4A85.2,85.2,0,0,1,154.79,35.48c30.47,35.6,26.29,89.6-9.32,120.2a84.89,84.89,0,0,1-47,20.2C97.92,177.58,88.69,192.88,88.39,193.78Z" transform="translate(-5.58 -6.51)"/>
  </g>
  <g>
    <g>
      <path class="cls-2" d="M41.42,131.58v-2.27h0.24a6.33,6.33,0,0,0,1.83,1,5.71,5.71,0,0,0,2,.38,3.12,3.12,0,0,0,1.59-.36,1.1,1.1,0,0,0,.6-1,1.06,1.06,0,0,0-.29-0.78,2.34,2.34,0,0,0-1.09-.48q-0.58-.11-2-0.42a4,4,0,0,1-2.12-1.1,3,3,0,0,1,.52-4.38,5.27,5.27,0,0,1,3.2-.91,9.67,9.67,0,0,1,3.74.73v2.17H49.43A5.3,5.3,0,0,0,46,123a3,3,0,0,0-1.51.34,1,1,0,0,0-.59.93,1,1,0,0,0,.34.8,2.73,2.73,0,0,0,1.16.49q0.82,0.15,1.82.39a5.4,5.4,0,0,1,1.5.55,3.16,3.16,0,0,1,.79.67,2.47,2.47,0,0,1,.44.8,3.09,3.09,0,0,1,.15,1,3,3,0,0,1-1.28,2.52,5.52,5.52,0,0,1-3.38,1A10.17,10.17,0,0,1,41.42,131.58Z" transform="translate(-5.58 -6.51)"/>
      <path class="cls-2" d="M59.14,123.28H55.62v8.94H53.27v-8.94H49.75V121.5h9.39v1.78Z" transform="translate(-5.58 -6.51)"/>
      <path class="cls-2" d="M69.07,132.22H66.59l-0.81-2.33H61.56l-0.81,2.33H58.37l4-10.72H65Zm-3.88-4-1.52-4.32-1.52,4.32h3Z" transform="translate(-5.58 -6.51)"/>
      <path class="cls-2" d="M79.34,132.22h-2.9l-3.14-4.06H71.8v4.06H69.46V121.5h4.1a5.16,5.16,0,0,1,3.22.79,2.62,2.62,0,0,1,1,2.15,3.33,3.33,0,0,1-2.14,3.15Zm-7.55-9v3.34h1.05a2.86,2.86,0,0,0,2-.51,1.82,1.82,0,0,0,.49-1.32,1.37,1.37,0,0,0-.47-1.12,3.06,3.06,0,0,0-1.85-.39H71.79Z" transform="translate(-5.58 -6.51)"/>
      <path class="cls-2" d="M91.64,131.5a10.38,10.38,0,0,1-2.15.78,8,8,0,0,1-1.54.16A5.14,5.14,0,0,1,84.08,131a6.57,6.57,0,0,1,0-8.17,5.09,5.09,0,0,1,3.87-1.5,8.08,8.08,0,0,1,3.68.9v2.2H91.39A5,5,0,0,0,88.23,123,2.76,2.76,0,0,0,86,124a4.46,4.46,0,0,0-.83,2.89,4.33,4.33,0,0,0,.85,2.86,2.81,2.81,0,0,0,2.26,1,4.14,4.14,0,0,0,1.44-.26,6.06,6.06,0,0,0,1.73-1.16h0.23v2.16Z" transform="translate(-5.58 -6.51)"/>
      <path class="cls-2" d="M101.9,132.22H99.42l-0.81-2.33H94.39l-0.81,2.33H91.21l4-10.72h2.6Zm-3.88-4-1.52-4.32L95,128.23h3Z" transform="translate(-5.58 -6.51)"/>
      <path class="cls-2" d="M112.18,132.22h-2.9l-3.14-4.06h-1.49v4.06h-2.35V121.5h4.1a5.16,5.16,0,0,1,3.22.79,2.62,2.62,0,0,1,1,2.15,3.33,3.33,0,0,1-2.14,3.15Zm-7.55-9v3.34h1.05a2.86,2.86,0,0,0,2-.51,1.82,1.82,0,0,0,.49-1.32,1.37,1.37,0,0,0-.47-1.12,3.06,3.06,0,0,0-1.85-.39h-1.23Z" transform="translate(-5.58 -6.51)"/>
      <path class="cls-2" d="M119.74,132.22h-7.47V121.5h7.47v1.78h-5.14v2.29h4.77v1.77h-4.77v3.1h5.14v1.78Z" transform="translate(-5.58 -6.51)"/>
      <path class="cls-2" d="M128.33,132.22h-7.47V121.5h7.47v1.78h-5.14v2.29H128v1.77h-4.77v3.1h5.14v1.78Z" transform="translate(-5.58 -6.51)"/>
      <path class="cls-2" d="M139.33,132.22h-2.9l-3.14-4.06h-1.49v4.06h-2.35V121.5h4.1a5.16,5.16,0,0,1,3.22.79,2.62,2.62,0,0,1,1,2.15,3.33,3.33,0,0,1-2.14,3.15Zm-7.55-9v3.34h1.05a2.86,2.86,0,0,0,2-.51,1.82,1.82,0,0,0,.49-1.32,1.37,1.37,0,0,0-.47-1.12,3.06,3.06,0,0,0-1.85-.39h-1.23Z" transform="translate(-5.58 -6.51)"/>
    </g>
    <path class="cls-3" d="M77.11,67.76l35,15.47,23.34-22.06Z" transform="translate(-5.58 -6.51)"/>
    <g>
      <path class="cls-4" d="M93.74,100.14l7.43-35.25,17,51.35Z" transform="translate(-5.58 -6.51)"/>
      <path class="cls-4" d="M93.57,100.07l-3.44-2.31,4.56-2.84Z" transform="translate(-5.58 -6.51)"/>
    </g>
    <path class="cls-5" d="M61.31,116.57L72.83,90.12,103.59,72,86.93,103.3Z" transform="translate(-5.58 -6.51)"/>
    <path class="cls-6" d="M90.25,66" transform="translate(-5.58 -6.51)"/>
    <g>
      <path class="cls-7" d="M90.94,66.2l8.28-7.42-9.55-29.1L77.3,67.74Z" transform="translate(-5.58 -6.51)"/>
      <path class="cls-7" d="M77.27,67.83l-4.87,15L85.21,71.34Z" transform="translate(-5.58 -6.51)"/>
    </g>
    <g>
      <path class="cls-8" d="M92.24,97.8l0.07,0,0.07,0a0,0,0,0,1,0,0l0,0a0.14,0.14,0,0,0-.11,0,0.25,0.25,0,0,0-.09.15,0.28,0.28,0,0,0,0,.21,0.25,0.25,0,0,0,.16.12,0.36,0.36,0,0,0,.18,0l0.17-.05,0.1,0,0.07,0h0.12a0.29,0.29,0,0,1,.11.06,0.47,0.47,0,0,1,.09.1,0.68,0.68,0,0,1,.06.12,0.61,0.61,0,0,1,0,.12,0.73,0.73,0,0,1,0,.31,0.84,0.84,0,0,1,0,.13,0.5,0.5,0,0,1-.07.11l0,0h0l-0.1-.06-0.1-.06s0,0,0,0h0l0.05,0a0.2,0.2,0,0,0,.16,0A0.31,0.31,0,0,0,93.19,99a0.65,0.65,0,0,0,0-.11,0.45,0.45,0,0,0,0-.11,0.44,0.44,0,0,0-.07-0.19A0.27,0.27,0,0,0,93,98.45H92.86l-0.16.05-0.16.05a0.3,0.3,0,0,1-.14,0,0.39,0.39,0,0,1-.14-0.08,0.56,0.56,0,0,1-.11-0.12l0-.06a0.43,0.43,0,0,1,0-.09,0.53,0.53,0,0,1,0-.11,0.43,0.43,0,0,1,0-.13,0.32,0.32,0,0,1,0-.09,0.18,0.18,0,0,1,.07-0.06h0Z" transform="translate(-5.58 -6.51)"/>
      <path class="cls-8" d="M92.84,96.69l0,0-0.05,0H92.65l-0.1,0a0.3,0.3,0,0,0-.09.09,0.54,0.54,0,0,0-.07.16,0.38,0.38,0,0,0,0,.17,0.87,0.87,0,0,0,0,.16,1.15,1.15,0,0,0,.11.21,1.85,1.85,0,0,0,.18.24,1.52,1.52,0,0,0,.23.21,0.81,0.81,0,0,0,.26.13,0.25,0.25,0,0,0,.13,0,0.21,0.21,0,0,0,.09,0,0.27,0.27,0,0,0,.06-0.09,0.61,0.61,0,0,0,0-.11,0.84,0.84,0,0,0,0-.48,1.54,1.54,0,0,0-.27-0.49v0h0l0,0,0,0a1,1,0,0,1,.22.44,1.06,1.06,0,0,1,0,.52,0.86,0.86,0,0,1-.06.16,0.41,0.41,0,0,1-.09.12,0.29,0.29,0,0,1-.13.07,0.37,0.37,0,0,1-.17,0A0.69,0.69,0,0,1,92.87,98a1.2,1.2,0,0,1-.19-0.17,1.45,1.45,0,0,1-.16-0.21,1.24,1.24,0,0,1-.11-0.21,0.93,0.93,0,0,1-.07-0.27,0.79,0.79,0,0,1,0-.28,1.14,1.14,0,0,1,.08-0.21,0.68,0.68,0,0,1,.13-0.18h0l0.09,0.08,0.12,0.09v0Z" transform="translate(-5.58 -6.51)"/>
    </g>
    <path class="cls-2" d="M69.46,91.82L42.89,66.44l31.42,1.73-1.63,3.72,22,16.53L71.46,85.7Z" transform="translate(-5.58 -6.51)"/>
    <polygon class="cls-7" points="75.75 68.29 66.86 76.3 70.53 64.91 75.75 68.29"/>
  </g>
</svg>
