<svg id="レイヤー" xmlns="http://www.w3.org/2000/svg" viewBox="0 0 241.97 253.91">
  <defs>
    <style>
      .cls-1 {
        fill: #4d4d4d;
      }

      .cls-2 {
        fill: #3e4b9e;
      }

      .cls-3 {
        fill: #d78340;
      }

      .cls-4 {
        fill: #8ec879;
      }

      .cls-5 {
        fill: #fff100;
      }

      .cls-6 {
        fill: #c64b96;
      }

      .cls-7 {
        fill: #ebc29c;
      }
    </style>
  </defs>
  <title>ベクトルスマートオブジェクト</title>
  <g>
    <path class="cls-1" d="M0,251.8V246.2H0.6a15.64,15.64,0,0,0,4.53,2.57,14.1,14.1,0,0,0,4.91.95,7.72,7.72,0,0,0,3.94-.88,2.71,2.71,0,0,0,1.49-2.44,2.63,2.63,0,0,0-.71-1.93,5.78,5.78,0,0,0-2.7-1.2q-1.42-.26-4.86-1A9.89,9.89,0,0,1,2,239.51a7.38,7.38,0,0,1,1.27-10.83,13,13,0,0,1,7.91-2.26,23.9,23.9,0,0,1,9.25,1.79v5.36H19.81a13.09,13.09,0,0,0-8.47-3,7.42,7.42,0,0,0-3.74.84,2.57,2.57,0,0,0-1.47,2.3,2.52,2.52,0,0,0,.83,2,6.74,6.74,0,0,0,2.86,1.21q2,0.37,4.51,1A13.33,13.33,0,0,1,18,239.27a7.81,7.81,0,0,1,2,1.64,6.11,6.11,0,0,1,1.09,2,7.64,7.64,0,0,1,.36,2.41,7.4,7.4,0,0,1-3.16,6.22,13.64,13.64,0,0,1-8.36,2.36A25.12,25.12,0,0,1,0,251.8Z"/>
    <path class="cls-1" d="M43.8,231.29H35.1v22.1H29.3v-22.1H20.6v-4.39H43.8v4.39Z"/>
    <path class="cls-1" d="M68.34,253.38H62.21l-2-5.75H49.78l-2,5.75H41.9l10-26.49h6.43Zm-9.6-9.86L55,232.84l-3.74,10.69h7.49Z"/>
    <path class="cls-1" d="M93.72,253.38H86.55l-7.77-10H75.09v10h-5.8V226.89H79.43q5.52,0,8,2a6.46,6.46,0,0,1,2.43,5.32q0,5.26-5.29,7.79ZM75.05,231.06v8.24h2.6q3.74,0,5-1.25a4.49,4.49,0,0,0,1.21-3.27A3.39,3.39,0,0,0,82.67,232q-1.16-1-4.57-1h-3Z"/>
    <path class="cls-1" d="M124.11,251.61a25.65,25.65,0,0,1-5.31,1.92,19.69,19.69,0,0,1-3.8.39q-6.08,0-9.58-3.62t-3.5-10.11q0-6.36,3.54-10.08a12.57,12.57,0,0,1,9.55-3.72,20,20,0,0,1,9.09,2.23V234H123.5q-4.13-3.52-7.82-3.52a6.83,6.83,0,0,0-5.59,2.52Q108,235.58,108,240.2t2.09,7.08a6.93,6.93,0,0,0,5.59,2.49,10.24,10.24,0,0,0,3.57-.64,15,15,0,0,0,4.27-2.86h0.56v5.34Z"/>
    <path class="cls-1" d="M149.48,253.38h-6.13l-2-5.75H130.91l-2,5.75H123l10-26.49h6.43Zm-9.6-9.86-3.74-10.69-3.74,10.69h7.49Z"/>
    <path class="cls-1" d="M174.86,253.38h-7.17l-7.77-10h-3.69v10h-5.8V226.89h10.14q5.52,0,8,2a6.46,6.46,0,0,1,2.43,5.32q0,5.26-5.29,7.79Zm-18.67-22.32v8.24h2.6q3.74,0,5-1.25a4.49,4.49,0,0,0,1.21-3.27A3.39,3.39,0,0,0,163.8,232q-1.16-1-4.57-1h-3Z"/>
    <path class="cls-1" d="M193.56,253.38H175.1V226.89h18.46v4.39H180.87v5.66h11.79v4.38H180.87V249h12.69v4.39Z"/>
    <path class="cls-1" d="M214.78,253.38H196.32V226.89h18.46v4.39H202.08v5.66h11.79v4.38H202.08V249h12.69v4.39Z"/>
    <path class="cls-1" d="M242,253.38H234.8l-7.77-10h-3.69v10h-5.8V226.89h10.14q5.52,0,8,2a6.46,6.46,0,0,1,2.43,5.32q0,5.26-5.29,7.79ZM223.3,231.06v8.24h2.6q3.74,0,5-1.25a4.49,4.49,0,0,0,1.21-3.27,3.39,3.39,0,0,0-1.16-2.76q-1.16-1-4.57-1h-3Z"/>
  </g>
  <path class="cls-2" d="M88.2,94.1l86.58,38.23,57.68-54.5Z"/>
  <g>
    <path class="cls-3" d="M129.3,174.11L147.67,87,189.8,213.89Z"/>
    <path class="cls-3" d="M128.89,173.93l-8.49-5.7,11.26-7Z"/>
  </g>
  <path class="cls-4" d="M49.15,214.7l28.47-65.34,76-44.81-41.16,77.36Z"/>
  <path class="cls-5" d="M120.69,89.78"/>
  <g>
    <path class="cls-6" d="M122.39,90.25l20.46-18.32L119.26,0,88.66,94Z"/>
    <path class="cls-6" d="M88.59,94.28l-12,37,31.67-28.36Z"/>
  </g>
  <g>
    <path class="cls-7" d="M125.59,168.33l0.17,0.12,0.18,0.12a0,0,0,0,1,0,0l-0.1-.05a0.35,0.35,0,0,0-.28.06,0.61,0.61,0,0,0-.23.37,0.68,0.68,0,0,0,0,.52,0.62,0.62,0,0,0,.4.31,0.88,0.88,0,0,0,.43,0,2.61,2.61,0,0,0,.41-0.13l0.25-.1,0.18-.06h0.14l0.15,0a0.72,0.72,0,0,1,.28.15,1.16,1.16,0,0,1,.22.25,1.67,1.67,0,0,1,.15.31,1.51,1.51,0,0,1,.08.31,1.82,1.82,0,0,1-.06.76,2.09,2.09,0,0,1-.12.32,1.24,1.24,0,0,1-.18.27l-0.06.05,0,0-0.26-.15-0.24-.14s0,0,0,0,0,0,0,0l0.12,0.06a0.49,0.49,0,0,0,.4-0.07,0.76,0.76,0,0,0,.3-0.47,1.61,1.61,0,0,0,0-.27,1.11,1.11,0,0,0,0-.26,1.08,1.08,0,0,0-.18-0.46,0.67,0.67,0,0,0-.39-0.28,0.61,0.61,0,0,0-.27,0,1.88,1.88,0,0,0-.4.13,2.37,2.37,0,0,1-.39.13,0.73,0.73,0,0,1-.35,0,1,1,0,0,1-.35-0.19,1.39,1.39,0,0,1-.28-0.3l-0.09-.15a1.07,1.07,0,0,1-.08-0.22,1.32,1.32,0,0,1,0-.27,1.07,1.07,0,0,1,0-.33,0.8,0.8,0,0,1,.09-0.21,0.45,0.45,0,0,1,.18-0.16A0.18,0.18,0,0,1,125.59,168.33Z"/>
    <path class="cls-7" d="M127.07,165.57l-0.11-.06-0.13,0a0.78,0.78,0,0,0-.23,0,0.5,0.5,0,0,0-.25.08,0.73,0.73,0,0,0-.22.22,1.34,1.34,0,0,0-.17.41,0.94,0.94,0,0,0,0,.41,2.15,2.15,0,0,0,.1.39,2.83,2.83,0,0,0,.27.51,4.57,4.57,0,0,0,.45.59,3.75,3.75,0,0,0,.57.52,2,2,0,0,0,.65.32,0.62,0.62,0,0,0,.31,0,0.51,0.51,0,0,0,.23-0.12,0.66,0.66,0,0,0,.16-0.22,1.51,1.51,0,0,0,.1-0.27,2.07,2.07,0,0,0,0-1.2,3.8,3.8,0,0,0-.67-1.21,0.06,0.06,0,0,1,0,0s0,0,.11,0l0.09,0,0.06,0.06a2.43,2.43,0,0,1,.54,1.1,2.62,2.62,0,0,1,0,1.28,2.12,2.12,0,0,1-.15.39,1,1,0,0,1-.23.3,0.73,0.73,0,0,1-.33.16,0.9,0.9,0,0,1-.43,0,1.72,1.72,0,0,1-.53-0.26,3,3,0,0,1-.48-0.43,3.58,3.58,0,0,1-.39-0.51,3.05,3.05,0,0,1-.28-0.52,2.29,2.29,0,0,1-.16-0.67,2,2,0,0,1,.07-0.7,2.81,2.81,0,0,1,.2-0.52,1.68,1.68,0,0,1,.33-0.45,0.1,0.1,0,0,1,.1,0l0.23,0.21,0.29,0.22v0.07Z"/>
  </g>
  <path class="cls-5" d="M69.31,153.56L3.63,90.84l77.66,4.27-4,9.19,54.4,40.85-57.43-6.73Z"/>
  <polygon class="cls-6" points="98.63 111.48 76.67 131.27 85.72 103.13 98.63 111.48"/>
</svg>
