<svg id="Layer_1" data-name="Layer 1" xmlns="http://www.w3.org/2000/svg" viewBox="0 0 88 72">
  <defs>
    <style>
      .cls-1 {
        fill: #202020;
      }
    </style>
  </defs>
  <title>mail</title>
  <path class="cls-1" d="M79.06,2.5h-64a12,12,0,0,0-12,12v48a12,12,0,0,0,12,12h64a12,12,0,0,0,12-12v-48A12,12,0,0,0,79.06,2.5Zm0,8a4,4,0,0,1,1.32.22L47.06,37.38,13.74,10.72a4,4,0,0,1,1.32-.22h64Zm0,56h-64a4,4,0,0,1-4-4V18.82l33.5,26.8a4,4,0,0,0,5,0l33.5-26.8V62.5A4,4,0,0,1,79.06,66.5Z" transform="translate(-3.06 -2.5)"/>
</svg>
